<?xml version="1.0" encoding="UTF-8"?>
<svg xmlns:svg="http://www.w3.org/2000/svg" xmlns="http://www.w3.org/2000/svg" height="986.7013378843228" width="1384.9637133998617">
    <symbol id="pictogram-Stock">
        <g>
            <path fill="none" d="M29.528885589998765,29.529575892625417 L118.11185706362376,29.529575892625417 L118.11185706362376,88.5846749226854 L29.528885589998765,88.5846749226854 Z" stroke-width="1.0" stroke="black"></path>
        </g>
    </symbol>
    <symbol id="pictogram-Cloud">
        <g>
            <path stroke-width="1.0" fill="none" stroke="black" d="M35.42702560040004,54.02312664204999 C26.318325568605644,38.26366510218115,51.00410987880002,23.708141541999993,61.468016242815224,42.5207551526596 C66.5811941572,23.708141541999993,87.58689230662242,27.21168767713435,89.94682057480003,41.03099017059999 C109.4181759228,28.038853699149996,124.99526020120004,45.361702327749995,109.5661582234448,57.634940581113085 C135.31118426457044,71.61881013655044,99.0282607091072,92.33693709635604,85.1335015327744,75.35621472817088 C77.71880941625602,98.68576111873791,51.339017190785626,87.17039749287606,54.89838094840002,71.34597527064999 C36.899060064708806,83.93102479932789,21.380389852352835,65.11408047651115,35.42702560040004,54.02312664204999 Z"></path>
        </g>
    </symbol>
    <symbol id="pictogram-FlowRate">
        <g>
            <path stroke-width="1.0" d="M65.27740455812506,47.803535925595 L65.27740455812506,53.72086420618719 M53.466411683125045,47.803535925595 L53.466411683125045,53.72086420618719 M42.54124327375007,35.99250143339499 L76.20257296750003,35.99250143339499 C79.47421799387507,35.99250143339499,82.10806940499998,38.62636212515561,82.10806940499998,41.89801867949498 C82.10806940499998,45.1696752338344,79.47421799387507,47.803535925595,76.20257296750003,47.803535925595 L42.54124327375001,47.803535925595 C39.26959824737503,47.803535925595,36.63574683625001,45.1696752338344,36.63574683625001,41.89801867949498 C36.63574683625001,38.62636212515561,39.26959824737503,35.99250143339499,42.54124327375001,35.99250143339499 Z M88.89939030812508,82.64608767758502 C88.89939030812508,98.84492148363734,75.57068484868756,112.17367390808502,59.37190812062505,112.17367390808502 C43.17313139256254,112.17367390808502,29.84442593312508,98.84492148363734,29.84442593312508,82.64608767758502 C29.84442593312508,66.4472538715327,43.17313139256254,53.11850144708502,59.37190812062505,53.11850144708502 C75.57068484868756,53.11850144708502,88.89939030812508,66.4472538715327,88.89939030812508,82.64608767758502 Z" fill="none" stroke="black"></path>
        </g>
    </symbol>
    <symbol id="pictogram-Auxiliary">
        <g>
            <path stroke-width="1.0" fill="none" stroke="black" d="M59.332682193925024,88.82098101502797 C75.67397938718878,88.82098101502797,88.86178576771235,75.63310802859817,88.86178576771235,59.291728302509995 C88.86178576771235,42.95034857642182,75.67397938718878,29.76247558999205,59.332682193925024,29.76247558999205 C42.9913850006611,29.76247558999205,29.8035786201375,42.95034857642182,29.8035786201375,59.291728302509995 C29.8035786201375,75.63310802859817,42.9913850006611,88.82098101502797,59.332682193925024,88.82098101502797 Z"></path>
        </g>
    </symbol>
    <symbol id="pictogram-GraphicalFunction">
        <g>
            <path stroke-width="1.0" stroke="black" d="M59.054855503124884,88.7013378843227 C75.3961928807131,88.7013378843227,88.58403169091969,75.51355084280584,88.58403169091969,59.17227761292503 C88.58403169091969,42.83100438304422,75.3961928807131,29.643217341527304,59.054855503124884,29.643217341527304 C42.71351812553684,29.643217341527304,29.525679315330137,42.83100438304422,29.525679315330137,59.17227761292503 C29.525679315330137,75.51355084280584,42.71351812553684,88.7013378843227,59.054855503124884,88.7013378843227 Z M51.08226087718259,69.21144604825719 C51.08226087718259,70.34544156343514,50.149260904596645,71.27843787354186,49.01576093790186,71.27843787354186 C47.88176097122192,71.27843787354186,46.948760998635976,70.34544156343514,46.948760998635976,69.21144604825719 C46.948760998635976,68.07795053110192,47.88176097122192,67.14445422297268,49.01576093790186,67.14445422297268 C50.149260904596645,67.14445422297268,51.08226087718259,68.07795053110192,51.08226087718259,69.21144604825719 Z M75.29526016573897,47.361532462157754 C75.29526016573897,48.49502797931319,74.3617601931677,49.428024289419795,73.22826022647291,49.428024289419795 C72.09426025979297,49.428024289419795,71.16126028720703,48.49502797931319,71.16126028720703,47.361532462157754 C71.16126028720703,46.22753694697991,72.09426025979297,45.29454063687325,73.22826022647291,45.29454063687325 C74.36176019316758,45.29454063687325,75.29526016573897,46.22753694697991,75.29526016573897,47.361532462157754 Z M64.66526047807713,63.8964670683892 C64.66526047807713,65.03046258356704,63.73226050549118,65.9634588936737,62.598260538811246,65.9634588936737 C61.464260572131195,65.9634588936737,60.53126059954525,65.03046258356704,60.53126059954525,63.8964670683892 C60.53126059954525,62.76297155123382,61.464260572131195,61.82997524112716,62.598260538811246,61.82997524112716 C63.73226050549118,61.82997524112716,64.66526047807713,62.76297155123382,64.66526047807713,63.8964670683892 Z M56.102260729681404,59.172485751193165 C56.102260729681404,60.30598126834843,55.1692607570954,61.23897757845515,54.03526079041535,61.23897757845515 C52.9012608237353,61.23897757845515,51.968260851149466,60.30598126834843,51.968260851149466,59.172485751193165 C51.968260851149466,58.03849023601521,52.9012608237353,57.105493925908604,54.03526079041535,57.105493925908604 C55.1692607570954,57.105493925908604,56.102260729681404,58.03849023601521,56.102260729681404,59.172485751193165 Z M49.01576093790186,69.21144604825719 L54.03526079041535,59.172485751193165 L62.598260538811246,63.8964670683892 L73.22826022647291,47.361532462157754 M43.70046488848777,39.68440997849018 L43.70046488848777,75.11726984559601 L79.13346384737002,75.11726984559601" fill="none"></path>
        </g>
    </symbol>
    <g>
        <use id="block-9" href="#pictogram-Cloud" y="708.0818905824501" x="160.3659901895147"></use>
    </g>
    <g>
        <use id="block-20" y="93.70827169749002" x="484.66731780607506" href="#pictogram-Auxiliary"></use>
        <text font-weight="600" font-family="IBM Plex Sans" y="202.52925271251797" font-size="18.0" x="544.0" text-anchor="middle">growth_goal</text>
        <text font-style="italic" x="544.0" font-family="IBM Plex Sans" y="218.52925271251797" font-weight="200" font-size="14.0" text-anchor="middle">capital * 0.1</text>
    </g>
    <g>
        <use href="#pictogram-Auxiliary" y="104.70827169749002" x="1143.667317806075" id="block-22"></use>
        <text y="213.529252712518" x="1203.0" font-weight="600" text-anchor="middle" font-size="18.0" font-family="IBM Plex Sans">capital_lifetime</text>
        <text font-style="italic" text-anchor="middle" font-weight="200" x="1203.0" font-family="IBM Plex Sans" font-size="14.0" y="229.529252712518">20</text>
    </g>
    <g>
        <use y="558.827722387075" x="826.9451444968751" id="block-44" href="#pictogram-GraphicalFunction"></use>
        <text font-family="IBM Plex Sans" font-size="18.0" font-weight="600" text-anchor="middle" x="886.0" y="667.5290602713978">yield</text>
    </g>
    <g>
        <use href="#pictogram-FlowRate" x="378.82816612984846" id="block-40" y="213.25469911305936"></use>
        <text font-weight="600" text-anchor="middle" font-family="IBM Plex Sans" font-size="18.0" x="438.20007425047356" y="345.42837302114435">investment</text>
        <text font-family="IBM Plex Sans" text-anchor="middle" y="361.42837302114435" x="438.20007425047356" font-weight="200" font-style="italic" font-size="14.0">min(profit, growth_goal)</text>
    </g>
    <g>
        <use id="block-48" y="458.827722387075" x="572.9451444968751" href="#pictogram-GraphicalFunction"></use>
        <text font-family="IBM Plex Sans" y="567.5290602713977" font-weight="600" font-size="18.0" x="632.0" text-anchor="middle">price</text>
    </g>
    <g>
        <use href="#pictogram-Cloud" y="241.08195161760636" x="1193.7659230508427" id="block-6"></use>
    </g>
    <g>
        <use id="block-30" href="#pictogram-FlowRate" y="679.2546991130594" x="908.8281661298485"></use>
        <text x="968.2000742504736" font-size="18.0" font-family="IBM Plex Sans" text-anchor="middle" font-weight="600" y="811.4283730211444">harvest</text>
        <text text-anchor="middle" y="827.4283730211444" font-weight="200" font-family="IBM Plex Sans" font-style="italic" font-size="14.0" x="968.2000742504736">capital * yield</text>
    </g>
    <g>
        <use id="block-34" href="#pictogram-Stock" x="650.1796286731887" y="236.9428745923446"></use>
        <text font-weight="600" text-anchor="middle" font-size="18.0" x="724.0" font-family="IBM Plex Sans" y="345.52754951503">capital</text>
        <text font-family="IBM Plex Sans" font-style="italic" font-weight="200" y="361.52754951503" font-size="14.0" text-anchor="middle" x="724.0">5</text>
    </g>
    <g>
        <use y="704.9428745923447" id="block-24" x="656.1796286731887" href="#pictogram-Stock"></use>
        <text font-family="IBM Plex Sans" font-size="18.0" y="813.52754951503" text-anchor="middle" x="730.0" font-weight="600">resource</text>
        <text x="730.0" y="829.52754951503" font-family="IBM Plex Sans" font-style="italic" text-anchor="middle" font-weight="200" font-size="14.0">1000</text>
    </g>
    <g>
        <use y="394.70827169749003" id="block-18" x="790.6673178060751" href="#pictogram-Auxiliary"></use>
        <text x="850.0" y="503.529252712518" font-family="IBM Plex Sans" text-anchor="middle" font-weight="600" font-size="18.0">profit</text>
        <text font-size="14.0" font-family="IBM Plex Sans" x="850.0" y="519.529252712518" font-weight="200" font-style="italic" text-anchor="middle">(price * harvest) - capital</text>
    </g>
    <g>
        <use href="#pictogram-Cloud" x="1079.3660207070927" y="706.0818905824501" id="block-12"></use>
    </g>
    <g>
        <use href="#pictogram-FlowRate" y="681.2546991130594" x="383.82816612984846" id="block-26"></use>
        <text font-weight="600" font-size="18.0" text-anchor="middle" x="443.20007425047356" y="813.4283730211444" font-family="IBM Plex Sans">regeneration</text>
        <text font-family="IBM Plex Sans" text-anchor="middle" x="443.20007425047356" font-style="italic" font-size="14.0" font-weight="200" y="829.4283730211444">resource * regeneration_rate</text>
    </g>
    <g>
        <use id="block-52" x="501.94514449687506" y="838.827722387075" href="#pictogram-GraphicalFunction"></use>
        <text font-family="IBM Plex Sans" y="947.5290602713978" font-weight="600" font-size="18.0" x="561.0" text-anchor="middle">regeneration_rate</text>
    </g>
    <g>
        <use x="970.8281661298485" y="213.25469911305936" href="#pictogram-FlowRate" id="block-36"></use>
        <text x="1030.2000742504736" font-weight="600" font-family="IBM Plex Sans" text-anchor="middle" font-size="18.0" y="345.42837302114435">depreciation</text>
        <text font-size="14.0" x="1030.2000742504736" font-style="italic" font-family="IBM Plex Sans" font-weight="200" y="361.42837302114435" text-anchor="middle">capital / capital_lifetime</text>
    </g>
    <g>
        <use id="block-3" x="177.76595356842094" y="240.08195161760636" href="#pictogram-Cloud"></use>
    </g>
    <g id="connector-217">
        <path stroke-width="1.0" fill="none" stroke="black" d="M931.7839671905009,708.5054174498928 L943.5514709279024,719.065997727048 L940.4738161042743,703.5570312628829"></path>
        <path d="M901.8484669013691,648.331592045697 C903.232034051369,648.331592045697,904.3486048763691,647.2150212206969,904.3486048763691,645.831454070697 C904.3486048763691,644.447886920697,903.232034051369,643.3313160956969,901.8484669013691,643.3313160956969 C900.4648997513691,643.3313160956969,899.348328926369,644.447886920697,899.348328926369,645.831454070697 C899.348328926369,647.2150212206969,900.4648997513691,648.331592045697,901.8484669013691,648.331592045697 Z" stroke="black" stroke-width="1.0" fill="none"></path>
        <path d="M903.0855634481215,648.0039162991403 L943.5514709279024,719.065997727048" stroke-width="1.0" fill="none" stroke="black"></path>
    </g>
    <g id="connector-28">
        <path fill="none" d="M472.729589841736,769.0 L655.7085142631875,769.0 L655.7085142631875,779.0 L685.7085142631875,764.0 L655.7085142631875,749.0 L655.7085142631875,759.0 L472.729589841736,759.0 L472.729589841736,769.0" stroke-width="1.0" stroke="black"></path>
    </g>
    <g id="connector-38">
        <path stroke="black" fill="none" stroke-width="1.0" d="M768.2914857368124,301.0 L970.674468483711,301.0 L970.674468483711,311.0 L1000.674468483711,296.0 L970.674468483711,281.0 L970.674468483711,291.0 L768.2914857368124,291.0 L768.2914857368124,301.0"></path>
    </g>
    <g id="connector-231">
        <path fill="none" stroke="black" stroke-width="1.0" d="M466.9217890326846,701.2486349077461 L465.0763869227937,716.9519622956856 L475.97470504347007,705.4965416512686"></path>
        <path stroke="black" stroke-width="1.0" fill="none" d="M683.5414557138477,739.776196571461 C684.9250228638476,739.776196571461,686.0415936888477,738.659625746461,686.0415936888477,737.276058596461 C686.0415936888477,735.892491446461,684.9250228638476,734.775920621461,683.5414557138477,734.775920621461 C682.1578885638477,734.775920621461,681.0413177388476,735.892491446461,681.0413177388476,737.276058596461 C681.0413177388476,738.659625746461,682.1578885638477,739.776196571461,683.5414557138477,739.776196571461 Z"></path>
        <path stroke-width="1.0" stroke="black" fill="none" d="M681.3743971645077,736.0295204928584 C622.2495981096719,702.0196803285722,540.049668373619,637.1795930328622,504.0,634.0 C467.950331626381,630.8204069671378,478.0509246151958,689.3013081971237,465.0763869227937,716.9519622956856"></path>
    </g>
    <g id="connector-46">
        <path fill="none" d="M856.9061048089208,652.0770841693666 L864.4413254185897,638.1767082620892 L850.072923386488,644.7758766221098" stroke-width="1.0" stroke="black"></path>
        <path stroke="black" stroke-width="1.0" fill="none" d="M763.375286300134,735.2642931043619 C764.758853450134,735.2642931043619,765.875424275134,734.1477222793618,765.875424275134,732.7641551293618 C765.875424275134,731.3805879793618,764.758853450134,730.2640171543618,763.375286300134,730.2640171543618 C761.991719150134,730.2640171543618,760.875148325134,731.3805879793618,760.875148325134,732.7641551293618 C760.875148325134,734.1477222793618,761.991719150134,735.2642931043619,763.375286300134,735.2642931043619 Z"></path>
        <path fill="none" stroke-width="1.0" stroke="black" d="M765.2005881869482,731.0558597737536 L864.4413254185897,638.1767082620892"></path>
    </g>
    <g id="connector-219">
        <path d="M976.9923320479917,699.2204524335948 L978.5796560410507,714.9519622956856 L986.748702763858,701.4143600101775" fill="none" stroke="black" stroke-width="1.0"></path>
        <path stroke="black" d="M770.5055655126163,322.8856886112761 C771.8891326626162,322.8856886112761,773.0057034876163,321.7691177862761,773.0057034876163,320.38555063627615 C773.0057034876163,319.0019834862762,771.8891326626162,317.8854126612762,770.5055655126163,317.8854126612762 C769.1219983626163,317.8854126612762,768.0054275376162,319.0019834862762,768.0054275376162,320.38555063627615 C768.0054275376162,321.7691177862761,769.1219983626163,322.8856886112761,770.5055655126163,322.8856886112761 Z" fill="none" stroke-width="1.0"></path>
        <path d="M772.71964528842,321.54652038023016 C860.47992628603,367.5642980920284,1001.6904864891449,394.0322798630491,1036.00048828125,459.599853515625 C1070.3104900733551,525.1674271682009,997.7199334544505,629.8345927023321,978.5796560410507,714.9519622956856" fill="none" stroke-width="1.0" stroke="black"></path>
    </g>
    <g id="connector-42">
        <path fill="none" stroke-width="1.0" stroke="black" d="M467.729589841736,301.0 L649.7085142631875,301.0 L649.7085142631875,311.0 L679.7085142631875,296.0 L649.7085142631875,281.0 L649.7085142631875,291.0 L467.729589841736,291.0 L467.729589841736,301.0"></path>
    </g>
    <g id="connector-32">
        <path fill="none" stroke="black" d="M774.3335010600741,768.6276261090119 L908.7175429981041,767.498348445667 L908.8015736446276,777.4979953819566 L938.674468483711,762.246433037952 L908.5494817050572,747.499054573088 L908.6335123515807,757.4987015093775 L774.2494704135507,758.6279791727223 L774.3335010600741,768.6276261090119" stroke-width="1.0"></path>
    </g>
    <g id="connector-233">
        <path fill="none" stroke="black" stroke-width="1.0" d="M479.2976499583558,796.9034691687435 L465.55174414135604,789.090014537777 L471.86039601637594,803.5883217327502"></path>
        <path stroke-width="1.0" stroke="black" d="M539.9885590576415,876.3281895980303 C541.3721262076415,876.3281895980303,542.4886970326415,875.2116187730303,542.4886970326415,873.8280516230303 C542.4886970326415,872.4444844730303,541.3721262076415,871.3279136480303,539.9885590576415,871.3279136480303 C538.6049919076415,871.3279136480303,537.4884210826415,872.4444844730303,537.4884210826415,873.8280516230303 C537.4884210826415,875.2116187730303,538.6049919076415,876.3281895980303,539.9885590576415,876.3281895980303 Z" fill="none"></path>
        <path d="M538.348452087431,871.9412423782292 C521.9656184489123,853.0941290334027,501.33273582955417,829.2084403171586,489.199951171875,815.39990234375 C477.06716651419583,801.5913643703414,473.4344798181957,797.859977139768,465.55174414135604,789.090014537777" stroke="black" fill="none" stroke-width="1.0"></path>
    </g>
    <g id="connector-235">
        <path stroke="black" stroke-width="1.0" fill="none" d="M808.6840899040466,471.3404587463442 L821.6682247109352,462.317585405964 L805.8671928611963,461.74540319413495"></path>
        <path stroke-width="1.0" stroke="black" fill="none" d="M662.7306088468154,511.478307854834 C664.1141759968153,511.478307854834,665.2307468218154,510.361737029834,665.2307468218154,508.978169879834 C665.2307468218154,507.59460272983404,664.1141759968153,506.47803190483404,662.7306088468154,506.47803190483404 C661.3470416968154,506.47803190483404,660.2304708718153,507.59460272983404,660.2304708718153,508.978169879834 C660.2304708718153,510.361737029834,661.3470416968154,511.478307854834,662.7306088468154,511.478307854834 Z"></path>
        <path stroke-width="1.0" fill="none" stroke="black" d="M665.1293727348677,508.2739456191214 L821.6682247109352,462.317585405964"></path>
    </g>
    <g id="connector-54">
        <path fill="none" d="M592.7842123247536,866.4173109160956 L584.1370624361914,879.6546368849134 L598.9971779283318,874.2530660429966" stroke-width="1.0" stroke="black"></path>
        <path stroke="black" fill="none" d="M690.8010920537968,797.5809288909245 C692.1846592037967,797.5809288909245,693.3012300287968,796.4643580659244,693.3012300287968,795.0807909159245 C693.3012300287968,793.6972237659245,692.1846592037967,792.5806529409244,690.8010920537968,792.5806529409244 C689.4175249037968,792.5806529409244,688.3009540787967,793.6972237659245,688.3009540787967,795.0807909159245 C688.3009540787967,796.4643580659244,689.4175249037968,797.5809288909245,690.8010920537968,797.5809288909245 Z" stroke-width="1.0"></path>
        <path fill="none" stroke-width="1.0" stroke="black" d="M688.8421532720715,796.634032316819 L584.1370624361914,879.6546368849134"></path>
    </g>
    <g id="connector-221">
        <path stroke-width="1.0" fill="none" stroke="black" d="M1059.1236192619078,239.9493592382273 L1055.4160678050225,255.31991752979718 L1067.604443945473,245.24800177067246"></path>
        <path d="M1171.6729614546598,173.16165009739586 C1173.05652860466,173.16165009739586,1174.1730994296597,172.04507927239587,1174.1730994296597,170.66151212239586 C1174.1730994296597,169.27794497239586,1173.05652860466,168.16137414739586,1171.6729614546598,168.16137414739586 C1170.2893943046597,168.16137414739586,1169.1728234796599,169.27794497239586,1169.1728234796599,170.66151212239586 C1169.1728234796599,172.04507927239587,1170.2893943046597,173.16165009739586,1171.6729614546598,173.16165009739586 Z" stroke-width="1.0" fill="none" stroke="black"></path>
        <path d="M1169.2276360293856,171.18149631879825 C1145.6853673789653,176.1876225051754,1117.5694247821855,172.17680467609654,1098.600830078125,186.1998748779297 C1079.6322353740645,200.22294507976284,1069.8109885627234,232.27990331250803,1055.4160678050225,255.31991752979718" stroke-width="1.0" stroke="black" fill="none"></path>
    </g>
    <g id="connector-223">
        <path d="M985.1004762910613,277.4299761121612 L1000.674468483711,280.159585458439 L989.8530403373579,268.631502665827" stroke="black" stroke-width="1.0" fill="none"></path>
        <path fill="none" stroke-width="1.0" stroke="black" d="M770.4819039324036,272.928981669233 C771.8654710824036,272.928981669233,772.9820419074036,271.812410844233,772.9820419074036,270.428843694233 C772.9820419074036,269.04527654423305,771.8654710824036,267.92870571923305,770.4819039324036,267.92870571923305 C769.0983367824036,267.92870571923305,767.9817659574036,269.04527654423305,767.9817659574036,270.428843694233 C767.9817659574036,271.812410844233,769.0983367824036,272.928981669233,770.4819039324036,272.928981669233 Z"></path>
        <path d="M772.6723221279947,269.2238257987546 C806.9816823626735,250.34916837104473,837.6000451060785,210.7772269056776,875.6004028320312,212.599853515625 C913.600760557984,214.4224801255724,958.9831132664845,257.6396748108343,1000.674468483711,280.159585458439" fill="none" stroke="black" stroke-width="1.0"></path>
    </g>
    <g id="connector-229">
        <path stroke="black" d="M442.74783389860573,233.35903490384896 L445.3671115381299,248.95196229568558 L452.62744586161256,234.90605379850177" fill="none" stroke-width="1.0"></path>
        <path stroke-width="1.0" stroke="black" fill="none" d="M513.7344824020918,165.9766608861942 C515.1180495520917,165.9766608861942,516.2346203770918,164.8600900611942,516.2346203770918,163.4765229111942 C516.2346203770918,162.0929557611942,515.1180495520917,160.9763849361942,513.7344824020918,160.9763849361942 C512.3509152520918,160.9763849361942,511.2343444270918,162.0929557611942,511.2343444270918,163.4765229111942 C511.2343444270918,164.8600900611942,512.3509152520918,165.9766608861942,513.7344824020918,165.9766608861942 Z"></path>
        <path stroke-width="1.0" fill="none" d="M511.37201716031257,164.29429915283066 C492.7814790508855,170.72948394042876,466.60122043572835,169.49024299181585,455.60040283203125,183.599853515625 C444.59958522833415,197.70946403943415,448.778208636097,227.16792603566537,445.3671115381299,248.95196229568558" stroke="black"></path>
    </g>
    <g id="connector-239">
        <path stroke="black" fill="none" stroke-width="1.0" d="M818.3285142147446,422.3043705734539 L831.589992158684,430.9144346116832 L826.1468482264701,416.0694966147361"></path>
        <path d="M749.106004811792,329.9822709929614 C750.489571961792,329.9822709929614,751.606142786792,328.8657001679614,751.606142786792,327.4821330179614 C751.606142786792,326.09856586796144,750.489571961792,324.98199504296144,749.106004811792,324.98199504296144 C747.722437661792,324.98199504296144,746.605866836792,326.09856586796144,746.605866836792,327.4821330179614 C746.605866836792,328.8657001679614,747.722437661792,329.9822709929614,749.106004811792,329.9822709929614 Z" stroke="black" stroke-width="1.0" fill="none"></path>
        <path d="M750.6647233014714,329.4367165208928 L831.589992158684,430.9144346116832" stroke="black" fill="none" stroke-width="1.0"></path>
    </g>
    <g id="connector-225">
        <path stroke="black" stroke-width="1.0" fill="none" d="M587.756136065194,162.64865240511836 L571.9451471502315,162.5362712192699 L584.5265095706924,172.11276951692616"></path>
        <path fill="none" stroke-width="1.0" stroke="black" d="M699.2908545026522,267.0056858596407 C700.6744216526522,267.0056858596407,701.7909924776523,265.8891150346407,701.7909924776523,264.50554788464075 C701.7909924776523,263.1219807346408,700.6744216526522,262.0054099096408,699.2908545026522,262.0054099096408 C697.9072873526522,262.0054099096408,696.7907165276522,263.1219807346408,696.7907165276522,264.50554788464075 C696.7907165276522,265.8891150346407,697.9072873526522,267.0056858596407,699.2908545026522,267.0056858596407 Z"></path>
        <path stroke="black" d="M697.7477102576712,262.53864528431154 C677.3652744491245,236.55904802808269,657.5674966832712,201.26691585979862,636.6004028320312,184.599853515625 C615.6333089807913,167.93279117145138,593.4968990441647,169.89079865138828,571.9451471502315,162.5362712192699" stroke-width="1.0" fill="none"></path>
    </g>
    <g id="connector-50">
        <path d="M670.5778460093876,540.7914940307033 L655.5875849377314,535.7623715422776 L664.562320302001,548.7798261760119" stroke-width="1.0" fill="none" stroke="black"></path>
        <path d="M854.1202525607968,617.426794189199 C855.5038197107967,617.426794189199,856.6203905357968,616.3102233641989,856.6203905357968,614.9266562141989 C856.6203905357968,613.543089064199,855.5038197107967,612.4265182391989,854.1202525607968,612.4265182391989 C852.7366854107968,612.4265182391989,851.6201145857967,613.543089064199,851.6201145857967,614.9266562141989 C851.6201145857967,616.3102233641989,852.7366854107968,617.426794189199,854.1202525607968,617.426794189199 Z" stroke-width="1.0" stroke="black" fill="none"></path>
        <path stroke="black" d="M851.6317894360152,614.6867577427532 C816.7546890510935,611.3244563337105,779.6745223642973,617.753917882371,747.00048828125,604.599853515625 C714.3264541982027,591.445789148879,686.0585527189043,558.7081988667268,655.5875849377314,535.7623715422776" fill="none" stroke-width="1.0"></path>
    </g>
    <g id="connector-227">
        <path d="M480.0409272987698,321.6628124284736 L465.0724021902932,316.5693601535518 L473.9911509121214,329.6252370385752" fill="none" stroke-width="1.0" stroke="black"></path>
        <path d="M818.3784407143867,451.4172179358386 C819.7620078643866,451.4172179358386,820.8785786893867,450.3006471108386,820.8785786893867,448.91707996083863 C820.8785786893867,447.53351281083866,819.7620078643866,446.41694198583866,818.3784407143867,446.41694198583866 C816.9948735643867,446.41694198583866,815.8783027393866,447.53351281083866,815.8783027393866,448.91707996083863 C815.8783027393866,450.3006471108386,816.9948735643867,451.4172179358386,818.3784407143867,451.4172179358386 Z" stroke="black" fill="none" stroke-width="1.0"></path>
        <path stroke="black" d="M815.9101255943345,448.52031747757974 C741.0067341201814,436.4801790996365,649.6729050725486,434.3917285644213,591.199951171875,412.39990234375 C532.7269972712014,390.4080761230787,507.1149185174871,348.5128742169512,465.0724021902932,316.5693601535518" fill="none" stroke-width="1.0"></path>
    </g>
    <g id="connector-237">
        <path stroke-width="1.0" fill="none" stroke="black" d="M893.7859801194929,463.51230159140965 L877.9747178408686,463.4491734950393 L890.5858508059459,472.98643333931017"></path>
        <path fill="none" d="M971.2097997094397,714.9573307327278 C972.5933668594397,714.9573307327278,973.7099376844398,713.8407599077277,973.7099376844398,712.4571927577277 C973.7099376844398,711.0736256077278,972.5933668594397,709.9570547827277,971.2097997094397,709.9570547827277 C969.8262325594397,709.9570547827277,968.7096617344397,711.0736256077278,968.7096617344397,712.4571927577277 C968.7096617344397,713.8407599077277,969.8262325594397,714.9573307327278,971.2097997094397,714.9573307327278 Z" stroke="black" stroke-width="1.0"></path>
        <path fill="none" d="M971.3714318611846,709.9624232197699 C975.9144506678731,639.8415666517216,1000.566607284636,540.6853951364135,985.00048828125,499.599853515625 C969.434369277864,458.51431189483657,913.6499746543291,475.4994001685679,877.9747178408686,463.4491734950393" stroke-width="1.0" stroke="black"></path>
    </g>
    <g id="connector-15">
        <path stroke-width="1.0" fill="none" stroke="black" d="M278.91295357265017,768.3749043500927 L383.655637543491,768.7739486267553 L383.6175402401138,778.7738760562656 L413.674468483711,763.8882768221318 L383.73183215024557,748.7740937677345 L383.6937348468683,758.7740211972448 L278.95105087602747,758.3749769205822 L278.91295357265017,768.3749043500927"></path>
    </g>
    <g id="connector-19">
        <path fill="none" d="M997.7513300790907,766.8706858461267 L1079.3711216966722,766.5157957628988 L1079.4146021713818,776.515701234868 L1109.349097875225,761.3854016027859 L1079.2841607472533,746.5159848189605 L1079.327641221963,756.5158902909296 L997.7078496043813,756.8707803741574 L997.7513300790907,766.8706858461267" stroke-width="1.0" stroke="black"></path>
    </g>
    <g id="connector-25">
        <path stroke-width="1.0" fill="none" stroke="black" d="M1059.7253594670578,301.0251516802077 L1193.7447805819406,301.1385421938876 L1193.736319832584,311.138538614673 L1223.749000218975,296.16392623156423 L1193.7617020806535,281.13854935231683 L1193.753241331297,291.13854577310224 L1059.7338202164142,291.0251552594224 L1059.7253594670578,301.0251516802077"></path>
    </g>
    <g id="connector-31">
        <path stroke="black" stroke-width="1.0" fill="none" d="M296.3106441545877,300.39583550229435 L378.6534197987973,300.74697214751313 L378.6107769014826,310.7468812262652 L408.674468483711,295.87494630008126 L378.73870559342674,280.74715399000894 L378.69606269611205,290.747063068761 L296.35328705190244,290.3959264235422 L296.3106441545877,300.39583550229435"></path>
    </g>
</svg>